<svg width="216" height="81" viewBox="0 0 216 81" version="1.1" xmlns="http://www.w3.org/2000/svg" xmlns:xlink="http://www.w3.org/1999/xlink">
<title>stride-logo</title>
<desc>Created using Figma</desc>
<g id="Canvas" transform="translate(-177 -130)">
<g id="stride-logo">
<g id="Group">
<g id="XMLID 20">
<use xlink:href="#path0_fill" transform="translate(195.8 130)" fill="#FFFFFF"/>
</g>
<g id="XMLID 19">
<use xlink:href="#path1_fill" transform="translate(205.079 139.366)" fill="#FFFFFF"/>
</g>
<g id="XMLID 18">
<use xlink:href="#path2_fill" transform="translate(177 155.191)" fill="#FFFFFF"/>
</g>
</g>
<g id="Stride">
<use xlink:href="#path3_fill" transform="translate(264 134)" fill="#FFFFFF"/>
</g>
</g>
</g>
<defs>
<path id="path0_fill" fill-rule="evenodd" d="M 14.9471 21.4975L 26.4044 33.0436C 26.4851 33.0436 26.5658 33.1243 26.6465 33.205L 33.3434 39.9873C 33.4241 40.0681 33.4241 40.1488 33.5048 40.2296C 33.7468 40.4718 33.7468 40.8755 33.5048 41.1177L 26.8079 47.9C 26.6465 48.0615 26.4851 48.1423 26.3238 48.0615L 7.92738 66.6321C 7.68533 66.8743 7.2819 66.8743 6.95915 66.6321L 0.26223 59.8498C 0.0201721 59.6076 0.0201721 59.1231 0.26223 58.8809L 18.4972 40.4718L 0.181543 22.0627C -0.0605141 21.8204 -0.0605141 21.336 0.181543 21.0938L 1.31114 19.9634C 1.31114 19.8019 1.39183 19.7212 1.47252 19.5597L 20.6757 0.181669C 20.9178 -0.0605563 21.3212 -0.0605563 21.644 0.181669L 28.3409 6.96397C 28.583 7.2062 28.583 7.69065 28.3409 7.93287L 14.9471 21.4975Z"/>
<path id="path1_fill" fill-rule="evenodd" d="M 44.8815 38.4532L 12.4458 71.2344C 12.3651 71.3151 12.2037 71.3959 12.0424 71.3959C 11.8003 71.3959 11.6389 71.3959 11.4776 71.2344L 0.181542 59.8498C -0.0605156 59.6076 -0.0605156 59.1231 0.181542 58.8809L 6.87847 52.0986C 7.12053 51.8564 7.52395 51.8564 7.8467 52.0986L 11.881 56.2164L 36.8936 31.025L 13.9788 7.93287C 13.7368 7.69065 13.7368 7.2062 13.9788 6.96397L 20.6757 0.181669C 20.9178 -0.0605561 21.3212 -0.0605561 21.644 0.181669L 51.7398 30.5406C 51.9818 30.7828 51.9818 31.2672 51.7398 31.5095L 45.0429 38.2918C 45.0429 38.3725 44.9622 38.3725 44.8815 38.4532Z"/>
<path id="path2_fill" fill-rule="evenodd" d="M 14.5436 0.181669C 14.7857 -0.0605566 15.1891 -0.0605566 15.5118 0.181669L 29.9546 14.7152C 30.1967 14.9574 30.1967 15.3611 29.9546 15.6841L 15.5925 30.2176C 15.3505 30.4598 14.947 30.4598 14.6243 30.2176L 0.181543 15.6841C -0.0605144 15.4419 -0.0605144 15.0381 0.181543 14.7152L 14.5436 0.181669Z"/>
<path id="path3_fill" d="M 17.7 27.08C 17.78 26.52 17.84 25.94 17.88 25.34C 17.92 24.74 17.94 24.04 17.94 23.24C 17.94 21.08 17.54 19.58 16.74 18.74C 15.98 17.9 14.84 17.48 13.32 17.48C 10.28 17.48 8.76 19.08 8.76 22.28L 8.76 23.54C 8.76 24.78 8.92 25.74 9.24 26.42C 9.6 27.1 10.12 27.72 10.8 28.28C 11.8 29.08 13.04 29.88 14.52 30.68C 16 31.44 17.56 32.3 19.2 33.26C 20.52 34.06 21.56 34.88 22.32 35.72C 23.12 36.52 23.72 37.44 24.12 38.48C 24.52 39.48 24.78 40.62 24.9 41.9C 25.02 43.14 25.08 44.58 25.08 46.22L 25.08 47.96C 25.08 51.84 24.02 54.8 21.9 56.84C 19.82 58.84 16.94 59.84 13.26 59.84C 11.14 59.84 9.32 59.5 7.8 58.82C 6.32 58.1 5.1 57.14 4.14 55.94C 3.18 54.7 2.46 53.24 1.98 51.56C 1.54 49.88 1.32 48.06 1.32 46.1C 1.32 45.34 1.34 44.56 1.38 43.76C 1.42 42.92 1.5 42.1 1.62 41.3L 8.52 41.3C 8.44 41.9 8.38 42.6 8.34 43.4C 8.3 44.2 8.28 45.02 8.28 45.86C 8.28 48.38 8.72 50.18 9.6 51.26C 10.52 52.3 11.8 52.82 13.44 52.82C 14.88 52.82 16 52.42 16.8 51.62C 17.64 50.78 18.06 49.42 18.06 47.54L 18.06 45.14C 18.06 44.22 18 43.46 17.88 42.86C 17.8 42.26 17.66 41.74 17.46 41.3C 17.26 40.86 16.96 40.48 16.56 40.16C 16.2 39.84 15.76 39.5 15.24 39.14C 14.68 38.78 13.98 38.38 13.14 37.94C 12.34 37.5 11.5 37.04 10.62 36.56C 9.78 36.08 8.94 35.6 8.1 35.12C 7.3 34.64 6.64 34.16 6.12 33.68C 5.32 33.04 4.64 32.4 4.08 31.76C 3.56 31.08 3.12 30.36 2.76 29.6C 2.4 28.84 2.14 28 1.98 27.08C 1.82 26.12 1.74 25 1.74 23.72L 1.74 21.62C 1.74 18.22 2.66 15.52 4.5 13.52C 6.38 11.52 9.3 10.52 13.26 10.52C 15.5 10.52 17.36 10.84 18.84 11.48C 20.32 12.08 21.48 12.94 22.32 14.06C 23.2 15.18 23.8 16.54 24.12 18.14C 24.48 19.7 24.66 21.44 24.66 23.36C 24.66 24 24.62 24.64 24.54 25.28C 24.5 25.88 24.44 26.48 24.36 27.08L 17.7 27.08ZM 44.843 27.92L 37.103 27.92L 37.103 51.2C 37.103 52.32 37.283 53.08 37.643 53.48C 38.003 53.88 38.583 54.08 39.383 54.08C 40.743 54.08 41.423 53.16 41.423 51.32C 41.423 51.08 41.403 50.8 41.363 50.48C 41.363 50.16 41.303 49.8 41.183 49.4L 44.843 49.4C 45.203 50.36 45.383 51.46 45.383 52.7C 45.383 54.94 44.783 56.64 43.583 57.8C 42.423 58.96 40.703 59.54 38.423 59.54C 36.943 59.54 35.703 59.36 34.703 59C 33.703 58.6 32.883 58.04 32.243 57.32C 31.643 56.6 31.203 55.74 30.923 54.74C 30.683 53.7 30.563 52.52 30.563 51.2L 30.563 27.92L 26.843 27.92L 26.843 23.12L 28.703 23.12C 29.463 23.12 30.003 22.96 30.323 22.64C 30.683 22.32 30.923 21.66 31.043 20.66L 31.703 14.78L 36.923 14.78L 36.923 23.12L 44.843 23.12L 44.843 27.92ZM 54.1533 26.66C 55.1133 25.46 56.1933 24.48 57.3933 23.72C 58.5933 22.96 60.0133 22.58 61.6533 22.58C 62.7733 22.58 63.7333 22.82 64.5333 23.3C 65.3333 23.78 65.9733 24.42 66.4533 25.22C 66.9333 26.02 67.2733 26.96 67.4733 28.04C 67.7133 29.08 67.8333 30.18 67.8333 31.34C 67.8333 33.3 67.6133 35.12 67.1733 36.8L 61.3533 36.8C 61.5533 36.08 61.6933 35.38 61.7733 34.7C 61.8933 33.98 61.9533 33.32 61.9533 32.72C 61.9533 31.8 61.7533 30.96 61.3533 30.2C 60.9933 29.4 60.2733 29 59.1933 29C 58.3933 29 57.6133 29.3 56.8533 29.9C 56.0933 30.46 55.4733 31.14 54.9933 31.94L 54.9933 59L 48.3933 59L 48.3933 23.12L 54.1533 23.12L 54.1533 26.66ZM 77.7863 59L 71.1862 59L 71.1862 23.12L 77.7863 23.12L 77.7863 59ZM 71.1862 11.42L 77.8463 11.42L 77.8463 18.74L 71.1862 18.74L 71.1862 11.42ZM 82.1977 33.5C 82.1977 31.38 82.3777 29.62 82.7377 28.22C 83.0977 26.82 83.6177 25.7 84.2977 24.86C 84.9777 24.02 85.8177 23.44 86.8177 23.12C 87.8177 22.76 88.9777 22.58 90.2977 22.58C 91.5777 22.58 92.7577 22.82 93.8377 23.3C 94.9177 23.74 95.8177 24.42 96.5377 25.34L 96.5377 11.42L 103.138 11.42L 103.138 59L 97.3177 59L 97.3177 56.18C 96.3977 57.34 95.3577 58.2 94.1977 58.76C 93.0777 59.28 91.7177 59.54 90.1177 59.54C 87.5177 59.54 85.5377 58.8 84.1777 57.32C 82.8577 55.84 82.1977 53.32 82.1977 49.76L 82.1977 33.5ZM 96.5377 31.52C 95.9377 30.6 95.2777 29.96 94.5577 29.6C 93.8777 29.2 93.1577 29 92.3977 29C 90.8777 29 89.8977 29.5 89.4577 30.5C 89.0177 31.5 88.7977 33.14 88.7977 35.42L 88.7977 46.82C 88.7977 47.9 88.8377 48.84 88.9177 49.64C 88.9977 50.4 89.1577 51.02 89.3977 51.5C 89.6377 51.98 89.9777 52.34 90.4177 52.58C 90.8577 52.82 91.4577 52.94 92.2177 52.94C 92.9777 52.94 93.6977 52.76 94.3777 52.4C 95.0977 52.04 95.8177 51.42 96.5377 50.54L 96.5377 31.52ZM 113.69 41.72L 113.69 48.86C 113.69 50.5 114.09 51.64 114.89 52.28C 115.73 52.92 116.61 53.24 117.53 53.24C 118.45 53.24 119.19 53.1 119.75 52.82C 120.35 52.5 120.79 52.1 121.07 51.62C 121.39 51.14 121.59 50.6 121.67 50C 121.79 49.36 121.85 48.7 121.85 48.02C 121.85 47.54 121.83 47.06 121.79 46.58C 121.75 46.06 121.69 45.56 121.61 45.08L 127.73 45.08C 127.89 45.6 127.99 46.16 128.03 46.76C 128.07 47.32 128.09 47.94 128.09 48.62C 128.09 50.02 127.93 51.38 127.61 52.7C 127.29 54.02 126.73 55.2 125.93 56.24C 125.17 57.24 124.13 58.04 122.81 58.64C 121.49 59.24 119.85 59.54 117.89 59.54C 114.77 59.54 112.23 58.68 110.27 56.96C 108.35 55.24 107.39 52.6 107.39 49.04L 107.39 33.02C 107.39 29.46 108.31 26.84 110.15 25.16C 111.99 23.44 114.57 22.58 117.89 22.58C 121.65 22.58 124.29 23.56 125.81 25.52C 127.37 27.48 128.15 30.36 128.15 34.16L 128.15 36.32C 128.15 37.56 128.11 38.64 128.03 39.56C 127.99 40.44 127.93 41.16 127.85 41.72L 113.69 41.72ZM 113.69 37.28L 121.79 37.28C 121.83 37 121.85 36.64 121.85 36.2C 121.89 35.72 121.91 35.26 121.91 34.82L 121.91 33.8C 121.91 32.08 121.63 30.8 121.07 29.96C 120.51 29.08 119.43 28.64 117.83 28.64C 116.51 28.64 115.49 29.02 114.77 29.78C 114.05 30.54 113.69 31.66 113.69 33.14L 113.69 37.28Z"/>
</defs>
</svg>
